<mxfile host="app.diagrams.net" agent="Mozilla/5.0 (X11; Linux x86_64) AppleWebKit/537.36 (KHTML, like Gecko) Chrome/127.0.0.0 Safari/537.36" version="24.7.16">
  <diagram name="Page-1" id="o8637eE1RdxBi9FvJ5ET">
    <mxGraphModel dx="794" dy="553" grid="1" gridSize="10" guides="1" tooltips="1" connect="1" arrows="1" fold="1" page="1" pageScale="1" pageWidth="827" pageHeight="1169" math="0" shadow="0">
      <root>
        <mxCell id="0" />
        <mxCell id="1" parent="0" />
        <mxCell id="HJB4MSHYhabP_lslFaBa-1" value="LLMEngine" style="rounded=1;whiteSpace=wrap;html=1;arcSize=21;labelPosition=center;verticalLabelPosition=middle;align=left;verticalAlign=top;fillColor=none;" parent="1" vertex="1">
          <mxGeometry x="200" y="200" width="520" height="280" as="geometry" />
        </mxCell>
        <mxCell id="HJB4MSHYhabP_lslFaBa-2" value="model_executor(base, cpu, gpu, tpu, xpu)" style="whiteSpace=wrap;html=1;rounded=1;labelPosition=center;verticalLabelPosition=middle;align=left;verticalAlign=top;fillColor=none;" parent="1" vertex="1">
          <mxGeometry x="230" y="220" width="460" height="240" as="geometry" />
        </mxCell>
        <mxCell id="HJB4MSHYhabP_lslFaBa-4" value="driver_worker(Base, worker)" style="whiteSpace=wrap;html=1;rounded=1;labelPosition=center;verticalLabelPosition=middle;align=left;verticalAlign=top;fillColor=none;" parent="1" vertex="1">
          <mxGeometry x="250" y="240" width="430" height="210" as="geometry" />
        </mxCell>
        <mxCell id="HJB4MSHYhabP_lslFaBa-7" value="model_runner" style="whiteSpace=wrap;html=1;rounded=1;" parent="1" vertex="1">
          <mxGeometry x="280" y="280" width="120" height="40" as="geometry" />
        </mxCell>
        <mxCell id="N3aP0ZFhvO0aF7u0CsKf-2" value="cache_engine" style="whiteSpace=wrap;html=1;rounded=1;" vertex="1" parent="1">
          <mxGeometry x="480" y="280" width="120" height="40" as="geometry" />
        </mxCell>
      </root>
    </mxGraphModel>
  </diagram>
</mxfile>
